<svg xmlns="http://www.w3.org/2000/svg" viewBox="0 0 24 24" width="24" height="24">
<g transform="translate(6.34,1.50) scale(0.0804)">
<g transform="scale(-1,1) translate(-140.80,0)"><path fill="#0063BE" d="M138.83 245.97C138.65 245.50 136.03 242.41 133.00 239.10C127.60 233.19 127.38 233.07 120.98 232.39C114.27 231.69 93.26 227.41 92.43 226.58C91.77 225.92 95.64 206.63 98.18 198.00C100.33 190.68 100.33 190.68 97.67 181.44C95.28 173.18 94.07 161.82 95.58 161.82C96.61 161.82 108.15 171.03 114.40 176.84C124.31 186.06 128.00 187.21 128.00 181.07C127.99 173.92 118.04 128.79 114.38 119.32C110.76 109.95 101.54 96.22 93.45 88.15C84.48 79.21 78.99 75.82 73.48 75.82C70.21 75.82 69.72 75.43 68.02 71.57C65.51 65.85 63.70 55.27 64.48 50.88C64.83 48.92 66.95 42.59 69.20 36.82C76.48 18.08 75.17 7.31 64.96 2.00C58.33 -1.44 52.12 -0.69 43.34 4.61C39.56 6.89 33.82 9.67 30.58 10.79C24.41 12.91 12.52 19.17 11.48 20.84C10.68 22.14 11.13 22.08 15.30 20.34C21.37 17.80 37.07 14.73 47.10 14.12C56.02 13.57 56.87 13.69 58.86 15.67C60.56 17.37 61.00 19.02 61.00 23.64C61.00 28.71 60.54 30.10 57.47 34.39C51.76 42.36 50.50 48.05 50.57 65.32C50.61 73.57 51.16 82.12 51.79 84.32C52.41 86.52 53.38 93.27 53.94 99.32C54.88 109.55 55.30 111.01 59.92 120.32C62.66 125.82 68.30 135.42 72.45 141.66C76.60 147.90 80.00 153.75 80.00 154.66C80.00 155.57 82.06 162.17 84.58 169.32C90.13 185.07 91.36 197.34 88.57 209.32C86.75 217.15 84.05 224.82 83.11 224.81C82.78 224.80 77.12 224.13 70.54 223.31C62.48 222.30 49.35 221.82 30.29 221.82L2.00 221.82L2.00 233.16L2.00 244.51L12.25 242.19C47.69 234.16 46.04 234.39 68.00 234.40C88.50 234.41 88.50 234.41 104.50 238.72C118.13 242.39 135.45 246.50 138.33 246.75C138.79 246.78 139.02 246.43 138.83 245.97Z"/></g>
</g>
</svg>